<svg xmlns="http://www.w3.org/2000/svg" width="20.221" height="20.156" viewBox="0 0 20.221 20.156">
  <g id="comment" transform="translate(0.25 0.25)">
    <path id="Path_1677" data-name="Path 1677" d="M9.828,19.656A9.83,9.83,0,0,0,19.267,7.088a.819.819,0,0,0-1.572.46,8.18,8.18,0,1,1-3.3-4.523.819.819,0,0,0,.916-1.358A9.829,9.829,0,1,0,9.828,19.657Zm0,0" transform="translate(0 0)" fill="#7b8a8e" stroke="#7b8a8e" stroke-width="0.5"/>
    <path id="Path_1678" data-name="Path 1678" d="M124.528,32.243l-8.43,8.43-2.7-2.7a.819.819,0,0,0-1.158,1.158l3.276,3.276a.819.819,0,0,0,1.158,0l9.009-9.009a.819.819,0,1,0-1.158-1.158Zm0,0" transform="translate(-106.27 -30.365)" fill="#7b8a8e" stroke="#7b8a8e" stroke-width="0.5"/>
  </g>
</svg>
