<?xml version="1.0" encoding="utf-8"?>
<!-- Generator: Adobe Illustrator 25.0.0, SVG Export Plug-In . SVG Version: 6.00 Build 0)  -->
<svg version="1.1" id="Layer_1" xmlns="http://www.w3.org/2000/svg" xmlns:xlink="http://www.w3.org/1999/xlink" x="0px" y="0px"
	 viewBox="0 0 556 332" style="enable-background:new 0 0 556 332;" xml:space="preserve">
<style type="text/css">
	.st0{clip-path:url(#SVGID_2_);}
	.st1{clip-path:url(#SVGID_4_);}
	.st2{fill:#8476E1;}
	.st3{fill-rule:evenodd;clip-rule:evenodd;fill:#D1FFCC;}
	.st4{fill:#66FF66;}
	.st5{fill:#B9B9F3;}
	.st6{fill-rule:evenodd;clip-rule:evenodd;fill:#8CDD83;}
	.st7{fill-rule:evenodd;clip-rule:evenodd;fill:#FFFFFF;}
	.st8{fill:#024D5E;}
	.st9{fill:#ECFFE9;}
	.st10{fill-rule:evenodd;clip-rule:evenodd;fill:#024D5E;}
	.st11{opacity:0.43;}
	.st12{clip-path:url(#SVGID_6_);}
	.st13{fill-rule:evenodd;clip-rule:evenodd;fill:#ECFFE9;}
	.st14{fill-rule:evenodd;clip-rule:evenodd;fill:#DCDDFB;}
	.st15{fill-rule:evenodd;clip-rule:evenodd;fill:#012834;}
	.st16{fill-rule:evenodd;clip-rule:evenodd;fill:#AEABBE;}
	.st17{fill-rule:evenodd;clip-rule:evenodd;fill:#CB6D61;}
	.st18{fill-rule:evenodd;clip-rule:evenodd;fill:#E8AE87;}
	.st19{fill-rule:evenodd;clip-rule:evenodd;fill:#DD9478;}
	.st20{fill-rule:evenodd;clip-rule:evenodd;fill:#EECAB0;}
	.st21{fill:#4BCD3E;}
	.st22{fill-rule:evenodd;clip-rule:evenodd;fill:#4BCD3E;}
	.st23{fill-rule:evenodd;clip-rule:evenodd;fill:#B9B9F3;}
	.st24{clip-path:url(#SVGID_8_);}
	.st25{clip-path:url(#SVGID_10_);}
	.st26{fill:#F5F5F5;}
	.st27{fill:#E0E0E0;}
	.st28{clip-path:url(#SVGID_12_);}
	.st29{clip-path:url(#SVGID_14_);}
	.st30{fill:#263338;}
	.st31{fill:#37494F;}
	.st32{fill:#455C64;}
	.st33{fill:#25DEB2;}
	.st34{opacity:0.75;}
	.st35{clip-path:url(#SVGID_16_);}
	.st36{fill:#FFFFFF;}
	.st37{opacity:0.2;}
	.st38{clip-path:url(#SVGID_18_);}
	.st39{opacity:0.1;}
	.st40{clip-path:url(#SVGID_20_);}
	.st41{clip-path:url(#SVGID_22_);}
	.st42{clip-path:url(#SVGID_24_);}
	.st43{clip-path:url(#SVGID_26_);}
	.st44{clip-path:url(#SVGID_28_);}
	.st45{clip-path:url(#SVGID_30_);}
	.st46{clip-path:url(#SVGID_32_);}
	.st47{fill:#FAFAFA;}
	.st48{fill:#EBEBEB;}
	.st49{fill:#F28F96;}
	.st50{fill:#FFA7AA;}
	.st51{clip-path:url(#SVGID_34_);}
	.st52{opacity:0.3;}
	.st53{clip-path:url(#SVGID_36_);}
	.st54{clip-path:url(#SVGID_38_);}
	.st55{clip-path:url(#SVGID_40_);}
	.st56{clip-path:url(#SVGID_42_);}
	.st57{clip-path:url(#SVGID_44_);}
	.st58{clip-path:url(#SVGID_46_);}
	.st59{clip-path:url(#SVGID_48_);}
	.st60{clip-path:url(#SVGID_50_);}
	.st61{clip-path:url(#SVGID_52_);}
	.st62{clip-path:url(#SVGID_54_);}
	.st63{clip-path:url(#SVGID_56_);}
	.st64{clip-path:url(#SVGID_58_);}
	.st65{clip-path:url(#SVGID_60_);}
	.st66{opacity:0.7;}
	.st67{clip-path:url(#SVGID_62_);}
	.st68{fill:none;stroke:#EBEBEB;stroke-width:0.785;stroke-miterlimit:10;}
	.st69{clip-path:url(#SVGID_64_);}
	.st70{opacity:0.5;}
	.st71{clip-path:url(#SVGID_66_);}
	.st72{opacity:0.35;}
	.st73{clip-path:url(#SVGID_68_);}
	.st74{clip-path:url(#SVGID_70_);}
	.st75{clip-path:url(#SVGID_72_);}
	.st76{fill:#F0F0F0;}
	.st77{clip-path:url(#SVGID_74_);}
	.st78{clip-path:url(#SVGID_76_);}
	.st79{clip-path:url(#SVGID_78_);}
	.st80{clip-path:url(#SVGID_80_);}
	.st81{clip-path:url(#SVGID_82_);}
	.st82{clip-path:url(#SVGID_84_);}
	.st83{clip-path:url(#SVGID_86_);}
	.st84{fill:#E6E6E6;}
	.st85{clip-path:url(#SVGID_88_);}
	.st86{opacity:0.25;}
	.st87{clip-path:url(#SVGID_90_);}
	.st88{clip-path:url(#SVGID_92_);}
	.st89{clip-path:url(#SVGID_94_);}
	.st90{clip-path:url(#SVGID_96_);}
	.st91{clip-path:url(#SVGID_98_);}
	.st92{opacity:0.4;}
	.st93{clip-path:url(#SVGID_100_);}
	.st94{clip-path:url(#SVGID_102_);}
	.st95{opacity:0.6;}
	.st96{clip-path:url(#SVGID_104_);}
	.st97{clip-path:url(#SVGID_106_);}
	.st98{clip-path:url(#SVGID_108_);}
	.st99{opacity:0.45;}
	.st100{clip-path:url(#SVGID_110_);}
	.st101{clip-path:url(#SVGID_112_);}
	.st102{clip-path:url(#SVGID_114_);}
	.st103{clip-path:url(#SVGID_116_);}
	.st104{clip-path:url(#SVGID_118_);}
	.st105{clip-path:url(#SVGID_120_);}
	.st106{clip-path:url(#SVGID_122_);}
	.st107{clip-path:url(#SVGID_124_);}
	.st108{clip-path:url(#SVGID_126_);}
	.st109{clip-path:url(#SVGID_128_);}
	.st110{clip-path:url(#SVGID_130_);}
	.st111{clip-path:url(#SVGID_132_);}
	.st112{clip-path:url(#SVGID_134_);}
	.st113{clip-path:url(#SVGID_136_);}
	.st114{clip-path:url(#SVGID_138_);}
	.st115{clip-path:url(#SVGID_140_);}
	.st116{clip-path:url(#SVGID_142_);}
	.st117{clip-path:url(#SVGID_144_);}
	.st118{clip-path:url(#SVGID_146_);}
	.st119{clip-path:url(#SVGID_148_);}
	.st120{clip-path:url(#SVGID_150_);}
	.st121{clip-path:url(#SVGID_152_);}
	.st122{clip-path:url(#SVGID_154_);}
	.st123{clip-path:url(#SVGID_156_);}
	.st124{clip-path:url(#SVGID_158_);}
	.st125{clip-path:url(#SVGID_160_);}
	.st126{clip-path:url(#SVGID_162_);}
	.st127{clip-path:url(#SVGID_164_);}
	.st128{clip-path:url(#SVGID_166_);}
	.st129{clip-path:url(#SVGID_168_);}
	.st130{clip-path:url(#SVGID_170_);}
	.st131{clip-path:url(#SVGID_172_);}
	.st132{clip-path:url(#SVGID_174_);}
	.st133{clip-path:url(#SVGID_176_);}
	.st134{clip-path:url(#SVGID_178_);}
	.st135{clip-path:url(#SVGID_180_);}
	.st136{clip-path:url(#SVGID_182_);}
	.st137{clip-path:url(#SVGID_184_);}
	.st138{clip-path:url(#SVGID_186_);}
	.st139{clip-path:url(#SVGID_188_);}
	.st140{clip-path:url(#SVGID_190_);}
	.st141{clip-path:url(#SVGID_192_);}
	.st142{clip-path:url(#SVGID_194_);}
	.st143{clip-path:url(#SVGID_196_);}
	.st144{clip-path:url(#SVGID_198_);}
	.st145{clip-path:url(#SVGID_200_);}
	.st146{clip-path:url(#SVGID_202_);}
	.st147{clip-path:url(#SVGID_204_);}
	.st148{clip-path:url(#SVGID_206_);}
	.st149{clip-path:url(#SVGID_208_);}
	.st150{clip-path:url(#SVGID_210_);}
	.st151{clip-path:url(#SVGID_212_);}
	.st152{clip-path:url(#SVGID_214_);}
	.st153{clip-path:url(#SVGID_216_);}
	.st154{clip-path:url(#SVGID_218_);}
	.st155{clip-path:url(#SVGID_220_);}
	.st156{clip-path:url(#SVGID_222_);}
	.st157{clip-path:url(#SVGID_224_);}
	.st158{clip-path:url(#SVGID_226_);}
	.st159{clip-path:url(#SVGID_228_);}
	.st160{clip-path:url(#SVGID_230_);}
	.st161{clip-path:url(#SVGID_232_);}
	.st162{clip-path:url(#SVGID_234_);}
	.st163{clip-path:url(#SVGID_236_);}
	.st164{clip-path:url(#SVGID_238_);}
	.st165{clip-path:url(#SVGID_240_);}
	.st166{clip-path:url(#SVGID_242_);}
	.st167{clip-path:url(#SVGID_244_);}
	.st168{clip-path:url(#SVGID_246_);}
	.st169{clip-path:url(#SVGID_248_);}
	.st170{clip-path:url(#SVGID_250_);}
	.st171{clip-path:url(#SVGID_252_);}
	.st172{clip-path:url(#SVGID_254_);}
	.st173{clip-path:url(#SVGID_256_);}
	.st174{clip-path:url(#SVGID_258_);}
	.st175{clip-path:url(#SVGID_260_);}
	.st176{clip-path:url(#SVGID_262_);}
	.st177{clip-path:url(#SVGID_264_);}
	.st178{clip-path:url(#SVGID_266_);}
	.st179{clip-path:url(#SVGID_268_);}
	.st180{clip-path:url(#SVGID_270_);}
	.st181{clip-path:url(#SVGID_272_);}
	.st182{clip-path:url(#SVGID_274_);}
	.st183{clip-path:url(#SVGID_276_);}
	.st184{clip-path:url(#SVGID_278_);}
	.st185{clip-path:url(#SVGID_280_);}
	.st186{clip-path:url(#SVGID_282_);}
	.st187{clip-path:url(#SVGID_284_);}
	.st188{clip-path:url(#SVGID_286_);}
	.st189{clip-path:url(#SVGID_288_);}
	.st190{clip-path:url(#SVGID_290_);}
	.st191{clip-path:url(#SVGID_292_);}
	.st192{clip-path:url(#SVGID_294_);}
	.st193{clip-path:url(#SVGID_296_);}
	.st194{clip-path:url(#SVGID_298_);}
	.st195{clip-path:url(#SVGID_300_);}
	.st196{opacity:0.15;}
	.st197{clip-path:url(#SVGID_302_);}
	.st198{clip-path:url(#SVGID_304_);}
	.st199{clip-path:url(#SVGID_306_);}
</style>
<g>
	<defs>
		<rect id="SVGID_1_" x="50.56" y="18.12" width="470.16" height="289.82"/>
	</defs>
	<clipPath id="SVGID_2_">
		<use xlink:href="#SVGID_1_"  style="overflow:visible;"/>
	</clipPath>
	<g id="Group_4301_1_" class="st0">
		<g id="Group_4300_1_">
			<g>
				<defs>
					<rect id="SVGID_3_" x="50.56" y="18.12" width="470.16" height="289.82"/>
				</defs>
				<clipPath id="SVGID_4_">
					<use xlink:href="#SVGID_3_"  style="overflow:visible;"/>
				</clipPath>
				<g id="Group_4299_1_" class="st1">
					<path id="Path_1069_1_" class="st2" d="M471.89,106.03c0.01-0.29,0.26-0.51,0.55-0.5c0.27,0.01,0.49,0.23,0.5,0.5v2.35
						c0.01,0.29-0.21,0.53-0.5,0.55c-0.29,0.01-0.53-0.21-0.55-0.5c0-0.02,0-0.03,0-0.05V106.03z M468.33,107.95
						c-0.2-0.2-0.2-0.54,0-0.74s0.54-0.2,0.74,0l1.66,1.67c0.2,0.2,0.2,0.54,0,0.74c-0.2,0.2-0.54,0.2-0.74,0L468.33,107.95z
						 M467.15,111.82c-0.29,0.01-0.53-0.21-0.54-0.5c-0.01-0.29,0.21-0.53,0.5-0.54c0.02,0,0.03,0,0.05,0h2.35
						c0.29,0.01,0.51,0.26,0.5,0.54c-0.01,0.27-0.23,0.49-0.5,0.5H467.15z M469.06,115.38c-0.2,0.2-0.53,0.21-0.74,0
						c-0.2-0.2-0.21-0.53,0-0.74l1.66-1.66c0.2-0.2,0.53-0.21,0.73-0.01c0,0,0.01,0.01,0.01,0.01c0.2,0.21,0.2,0.54,0,0.74
						L469.06,115.38z M472.94,116.55c0.01,0.29-0.21,0.53-0.5,0.55c-0.29,0.01-0.53-0.21-0.55-0.5c0-0.02,0-0.03,0-0.05v-2.35
						c-0.01-0.29,0.21-0.53,0.5-0.55c0.29-0.01,0.53,0.21,0.55,0.5c0,0.02,0,0.03,0,0.05V116.55z M476.5,114.65
						c0.2,0.2,0.2,0.53,0,0.74c-0.2,0.2-0.53,0.2-0.74,0l-1.66-1.66c-0.2-0.21-0.2-0.54,0-0.74c0.2-0.2,0.53-0.21,0.73-0.01
						c0,0,0.01,0.01,0.01,0.01L476.5,114.65z M477.67,110.78c0.29-0.01,0.53,0.21,0.54,0.5c0.01,0.29-0.21,0.53-0.5,0.54
						c-0.02,0-0.03,0-0.05,0h-2.35c-0.29-0.01-0.51-0.26-0.5-0.54c0.01-0.27,0.23-0.49,0.5-0.5H477.67z M475.76,107.21
						c0.2-0.2,0.54-0.2,0.74,0s0.2,0.54,0,0.74l-1.66,1.66c-0.2,0.2-0.54,0.2-0.74,0c-0.2-0.2-0.2-0.54,0-0.74l0,0L475.76,107.21z"
						/>
					<path id="Path_1070_1_" class="st3" d="M134.13,18.12c-32.21,0-58.32,26.11-58.32,58.32s26.11,58.32,58.32,58.32
						c6.46,0,11.71,5.24,11.71,11.7c0,6.46-5.24,11.71-11.71,11.71h-30.52c-15.71-0.13-28.56,12.5-28.69,28.21
						c-0.13,15.71,12.5,28.56,28.21,28.69c0.16,0,0.32,0,0.48,0c13.57,0.04,24.57,11.03,24.61,24.61
						c0.07,24.77,20.13,44.83,44.89,44.9h263.56c32.21,0,58.32-26.11,58.32-58.32s-26.11-58.32-58.32-58.32h-41.13
						c-6.46-0.06-11.66-5.35-11.6-11.81c0.06-6.38,5.22-11.54,11.6-11.6h10.45c15.71-0.12,28.35-12.95,28.24-28.66
						c-0.12-15.53-12.66-28.09-28.19-28.24h-3.02c-13.57-0.04-24.57-11.03-24.61-24.61c-0.07-24.77-20.13-44.83-44.9-44.9H134.13z"
						/>
					<path id="Path_1071_1_" class="st3" d="M472.41,145.26c15.57,0,28.19-12.62,28.19-28.19s-12.62-28.19-28.19-28.19
						c-15.57,0-28.19,12.62-28.19,28.19c0,0,0,0,0,0C444.23,132.64,456.85,145.26,472.41,145.26"/>
					<rect id="Rectangle_914_1_" x="144.99" y="49.9" class="st4" width="27.31" height="8.28"/>
					<rect id="Rectangle_915_1_" x="104.43" y="59.84" class="st4" width="27.32" height="8.28"/>
					<rect id="Rectangle_916_1_" x="133.05" y="59.84" class="st4" width="27.31" height="8.28"/>
					<rect id="Rectangle_917_1_" x="116.38" y="69.77" class="st4" width="27.31" height="8.28"/>
					<rect id="Rectangle_918_1_" x="104.43" y="79.7" class="st4" width="27.32" height="8.28"/>
					<rect id="Rectangle_919_1_" x="133.05" y="79.7" class="st4" width="27.31" height="8.28"/>
					<rect id="Rectangle_920_1_" x="162.7" y="231.54" class="st5" width="27.32" height="8.27"/>
					<rect id="Rectangle_921_1_" x="191.31" y="231.54" class="st5" width="27.31" height="8.27"/>
					<rect id="Rectangle_922_1_" x="150.76" y="241.46" class="st5" width="27.31" height="8.27"/>
					<rect id="Rectangle_923_1_" x="179.37" y="241.46" class="st4" width="27.31" height="8.27"/>
					<rect id="Rectangle_924_1_" x="191.31" y="251.4" class="st4" width="27.31" height="8.28"/>
					<rect id="Rectangle_925_1_" x="150.76" y="261.32" class="st5" width="27.31" height="8.28"/>
					<rect id="Rectangle_926_1_" x="179.37" y="261.32" class="st4" width="27.31" height="8.28"/>
					<path id="Path_1072_1_" class="st6" d="M209.11,43.24h120.22c3.07,0.01,5.56,2.5,5.57,5.57v171.48h4.28
						c2.06,0.01,3.73,1.68,3.74,3.75v15.31c-0.01,2.06-1.68,3.73-3.74,3.74H199.25c-2.06-0.01-3.73-1.68-3.74-3.74v-15.31
						c0.01-2.06,1.68-3.74,3.74-3.75h4.28V48.82C203.55,45.74,206.03,43.26,209.11,43.24"/>
					<path id="Path_1073_1_" class="st7" d="M206.04,41.95h120.22c3.07,0.01,5.56,2.49,5.57,5.57v174.14
						c-0.01,3.07-2.5,5.56-5.57,5.57H206.04c-3.07-0.01-5.56-2.49-5.57-5.57V47.52C200.48,44.45,202.97,41.96,206.04,41.95"/>
					<rect id="Rectangle_927_1_" x="210.66" y="138.84" class="st8" width="110.99" height="72.66"/>
					<rect id="Rectangle_928_1_" x="210.66" y="52.13" class="st9" width="110.99" height="88.59"/>
					<path id="Path_1074_1_" class="st10" d="M221.6,90.96h39.08V63.08H221.6V90.96z M221.6,129.78h39.08V101.9H221.6V129.78z
						 M271.63,129.78h39.08V101.9h-39.08V129.78z M310.71,63.08h-39.08v27.87h39.08V63.08z"/>
					<g id="Group_4298_1_" transform="translate(181.163 49.606)" class="st11">
						<g id="Group_4297_1_">
							<g>
								<defs>
									<rect id="SVGID_5_" x="50.56" y="18.12" width="74.55" height="57.42"/>
								</defs>
								<clipPath id="SVGID_6_">
									<use xlink:href="#SVGID_5_"  style="overflow:visible;"/>
								</clipPath>
								<g id="Group_4296_1_" class="st12">
									<path id="Path_1075_1_" class="st13" d="M125.11,34.48l-6.86,6.86h-18.17l23.23-23.23h1.8L125.11,34.48z M107.98,18.12
										h7.87L92.61,41.35h-2.15v-5.72L107.98,18.12z M79.52,75.53H65.89l13.62-13.62L79.52,75.53z M58.43,75.53h-7.87L73.8,52.29
										h5.72v2.15L58.43,75.53z M107.3,52.29L90.46,69.13V52.29H107.3z"/>
								</g>
							</g>
						</g>
					</g>
					<path id="Path_1076_1_" class="st14" d="M196.19,219h139.93c2.06,0.01,3.73,1.68,3.74,3.74v15.31
						c-0.01,2.06-1.67,3.74-3.74,3.75H196.19c-2.06-0.01-3.73-1.68-3.74-3.75v-15.31C192.46,220.68,194.13,219.01,196.19,219"/>
					<path id="Path_1077_1_" class="st15" d="M269.98,148.02l-1.45,0.15l-0.89-0.03l-0.89-0.04l-1.43-0.26l-8.17-8.37l-18.79,8.28
						c0.57,29.54-2.51,43.39-6.14,63.75h57.09c0.08-8.77,3.61-21.76,4.35-28.81l3.21-32.64l-18.08-9.73L269.98,148.02z"/>
					<path id="Path_1078_1_" class="st15" d="M273.43,211.5h10.31c1.78-1.58,3.73-2.96,5.8-4.13c0.82-8.35,3.48-18.67,4.11-24.68
						l0.09-0.93c-0.23-2.25-0.48-4.69-0.76-7.3c-1.04-9.69,1.22-16.14,3.45-19.98l0.44-4.44l-18.08-9.73l-2.85,2.49l-0.98,4.67
						c0,0,9.78,7.54,10.96,11.67s-2.95,32.52-5.89,44.77C279.3,206.92,276.8,209.43,273.43,211.5"/>
					<path id="Path_1079_1_" class="st15" d="M238.36,148.94c0.39,14.01-0.47,28.03-2.57,41.89c0,0,9.59-35.88,8.53-36.86
						C243.49,153.2,242.46,152.34,238.36,148.94"/>
					<path id="Path_1080_1_" class="st16" d="M277.97,138.23c-6.19-3.14-13.43-3.43-19.85-0.79l1.04,3.14l17.53,0.69L277.97,138.23z
						"/>
					<path id="Path_1081_1_" class="st15" d="M269.98,148.02l-1.45,0.15l-1.79-0.07l-1.43-0.26l-5.49-5.62l-0.86,0.23l-1.92,2.34
						c0,0,3.78,9.8,4.01,10.14s0.66,0.52,1.32-0.21s2.71-3.15,2.71-3.15s0.6-0.58,0.83,0.11s3.25-1.06,3.25-1.06l0.18,0.66
						c0,0,0.47-0.52,0.89,0.2s2.47,3.84,2.61,3.98s0.79,0.62,1.29-0.31c0.45-0.85,5.84-11.76,6.78-13.67l-2.13-1.15L269.98,148.02z"
						/>
					<path id="Path_1082_1_" class="st15" d="M269.98,148.02l-1.45,0.15l-1.79-0.07l-1.43-0.26l-0.55-0.56l-1.28,2.02
						c0,0,2.64,0.97,2.55,3.32l-5.16,58.88h2.85l5.16-58.76c0.2-2.34,2.8-3.11,2.8-3.11l-1.12-2.12L269.98,148.02z"/>
					<path id="Path_1083_1_" class="st17" d="M268.6,123.76L268.6,123.76c4.15,0.18,7.38,3.67,7.23,7.83l-0.39,9.96
						c-0.16,4.16-3.67,7.4-7.83,7.23c-4.16-0.16-7.4-3.67-7.23-7.83l0.39-9.96C260.95,126.84,264.44,123.61,268.6,123.76"/>
					<path id="Path_1084_1_" class="st15" d="M265.92,147.17l0.86-0.1c0.11,0.14,0.17,0.32,0.18,0.5c0.01,0.31-0.01,1.23-0.01,1.23
						c-0.32,0.1-2.02,0.38-1.96,0.14C265.01,148.88,265.92,147.17,265.92,147.17"/>
					<path id="Path_1085_1_" class="st15" d="M269.42,147.31l-0.85-0.18c-0.12,0.14-0.2,0.31-0.21,0.49
						c-0.04,0.31-0.1,1.22-0.1,1.22c0.31,0.26,1.99,0.54,1.95,0.3C270.19,149.08,269.42,147.31,269.42,147.31"/>
					<path id="Path_1086_1_" class="st7" d="M277.97,138.22c0.1,0.09,1.09,2,1.61,2.92c0.3,0.62,0.32,1.35,0.06,1.99
						c-0.42,1.23-5.66,11.25-5.66,11.25s-0.37,0.53-0.9-0.02s-4.5-7.24-4.5-7.24l8.33-8.12
						C277.29,138.54,277.88,138.14,277.97,138.22"/>
					<path id="Path_1087_1_" class="st7" d="M258.12,137.44c-0.07,0.03-1.25,1.91-1.83,2.79c-0.35,0.6-0.42,1.32-0.21,1.98
						c0.32,1.26,4.76,11.66,4.76,11.66s0.32,0.55,0.9,0.04s5.06-6.86,5.06-6.86l-7.67-8.76
						C258.61,137.65,258.18,137.41,258.12,137.44"/>
					<path id="Path_1088_1_" class="st17" d="M253.71,114.36c-0.11,0-0.23,0-0.34,0.01h-0.01c-2.54,0.16-4.46,2.34-4.31,4.88
						s2.34,4.46,4.88,4.31c2.54-0.16,4.46-2.34,4.31-4.88c-0.07-1.06-0.49-2.06-1.21-2.84c-0.08,1.36-0.53,2.99-2.27,2.9l0.43-2.61
						c0.1-0.87-0.51-1.65-1.38-1.76C253.77,114.36,253.74,114.36,253.71,114.36"/>
					<path id="Path_1089_1_" class="st17" d="M286.52,119.12c0.11,0.03,0.22,0.07,0.32,0.11h0.01c2.38,0.88,3.6,3.52,2.73,5.9
						c-0.88,2.38-3.52,3.6-5.9,2.73c-2.38-0.88-3.6-3.52-2.73-5.9c0.36-0.99,1.06-1.83,1.97-2.37c-0.31,1.33-0.34,3.02,1.35,3.44
						l0.33-2.63c0.15-0.86,0.96-1.44,1.82-1.29C286.46,119.11,286.49,119.12,286.52,119.12"/>
					<path id="Path_1090_1_" class="st18" d="M273.41,94.03L273.41,94.03c-8.59-1.22-16.55,4.72-17.82,13.31l-2.06,14.16
						c-1.25,8.6,4.71,16.58,13.31,17.82s16.58-4.71,17.82-13.31l2.06-14.15C287.94,103.27,281.99,95.31,273.41,94.03"/>
					<path id="Path_1091_1_" class="st19" d="M264.64,138.84c0.72,0.21,1.46,0.37,2.2,0.48c8.59,1.22,16.55-4.72,17.82-13.31
						l2.06-14.15c0.36-2.48,0.12-5.01-0.7-7.37c-6.29-1.87-11.65-3.38-11.65-3.38s-19.83-0.02-17.71,5.46l0.56,0.91
						c1.36-1.01,3.12-1.32,4.74-0.82c3.04,0.74,13.11,3.36,16.44,4.59s4.21,3.71,3.71,7.07c-0.5,3.36-0.15,4.68,0.68,5.24
						C282.79,123.57,281.52,138.84,264.64,138.84"/>
					<path id="Path_1092_1_" class="st7" d="M264.47,127.41c-0.33,2.22,1.2,4.3,3.42,4.63c2.11,0.32,4.11-1.06,4.58-3.14h-0.01
						c0.07-0.38-0.18-0.75-0.56-0.82l-6.61-1.23C264.91,126.78,264.55,127.03,264.47,127.41L264.47,127.41z"/>
					<path id="Path_1093_1_" class="st7" d="M265.38,130.8c1.13,1.31,2.96,1.77,4.57,1.15c-0.23-0.98-1.02-1.72-2.01-1.9
						C267.01,129.8,266.03,130.09,265.38,130.8"/>
					<path id="Path_1094_1_" class="st7" d="M271.99,128.1l-6.21-1.15c-0.25,0.58-0.08,1.25,0.4,1.66c0.52,0.28,5.04,1.01,5.43,0.71
						C271.84,128.95,271.98,128.53,271.99,128.1"/>
					<path id="Path_1095_1_" class="st17" d="M277.81,125.81c-1.13-0.19-2.2,0.57-2.39,1.7c-0.19,1.13,0.57,2.2,1.7,2.39
						c1.13,0.19,2.2-0.57,2.39-1.7c0,0,0,0,0-0.01C279.69,127.06,278.93,126,277.81,125.81"/>
					<path id="Path_1096_1_" class="st17" d="M260.25,122.92c-1.13-0.19-2.2,0.57-2.39,1.7c-0.19,1.13,0.57,2.2,1.7,2.39
						c1.13,0.19,2.2-0.57,2.39-1.7c0,0,0,0,0-0.01C262.13,124.17,261.37,123.11,260.25,122.92"/>
					<path id="Path_1097_1_" class="st15" d="M263.07,121.11c0.05-0.38-0.05-0.77-0.28-1.08c-0.23-0.31-0.57-0.52-0.96-0.57
						c-0.79-0.12-1.53,0.43-1.65,1.22c0,0,0,0.01,0,0.01c-0.05,0.31-0.33,0.52-0.64,0.47c-0.31-0.05-0.52-0.33-0.47-0.64
						c0.1-0.68,0.46-1.29,1.01-1.7c0.55-0.41,1.24-0.58,1.91-0.48c0.68,0.09,1.29,0.45,1.7,1.01c0.41,0.55,0.58,1.23,0.49,1.91
						c-0.05,0.31-0.33,0.52-0.64,0.48C263.23,121.7,263.02,121.41,263.07,121.11 M279.1,123.44c0.06-0.38-0.04-0.77-0.27-1.08
						c-0.48-0.64-1.39-0.78-2.03-0.3c-0.31,0.23-0.52,0.58-0.57,0.96c-0.05,0.31-0.33,0.52-0.64,0.47
						c-0.31-0.05-0.52-0.33-0.47-0.64l0,0c0.19-1.41,1.48-2.4,2.89-2.21c1.41,0.19,2.4,1.48,2.21,2.89c0,0.02-0.01,0.04-0.01,0.06
						c-0.04,0.31-0.33,0.52-0.63,0.47C279.27,124.03,279.06,123.75,279.1,123.44 M280.32,118.42c-1.09-0.81-2.52-1.02-3.8-0.57
						c-0.28,0.12-0.61-0.01-0.73-0.3c-0.12-0.28,0.01-0.61,0.3-0.73c0,0,0,0,0,0c1.63-0.59,3.45-0.34,4.86,0.68
						c0.25,0.18,0.31,0.52,0.14,0.78C280.92,118.54,280.57,118.6,280.32,118.42C280.32,118.43,280.32,118.42,280.32,118.42
						 M260.44,115.54c-0.29,0.1-0.61-0.06-0.71-0.35s0.06-0.61,0.35-0.71l0,0c1.64-0.58,3.46-0.31,4.86,0.72
						c0.24,0.2,0.27,0.55,0.08,0.79c-0.19,0.24-0.54,0.28-0.78,0.09c0,0,0,0-0.01-0.01C263.14,115.27,261.72,115.07,260.44,115.54"
						/>
					<path id="Path_1098_1_" class="st15" d="M253.91,118.87c0,0,2.46-0.61,3.04-4.59s0.43-3,0.73-5.08c0.39-3.1,3.22-5.3,6.33-4.91
						c0.05,0.01,0.11,0.01,0.16,0.02c4.21,0.61,7.59,1.1,7.59,1.1s3.37,0.49,7.59,1.1c3.1,0.42,5.27,3.28,4.84,6.38
						c-0.01,0.05-0.01,0.1-0.02,0.15c-0.3,2.08-0.16,1.09-0.73,5.08s1.61,5.26,1.61,5.26c0.46-3.16,1.6-4.26,1.6-4.26
						s0.61-4.23,1.15-7.92c0.89-4.73-0.66-9.58-4.13-12.91c-5.75-5.39-14.25-6.62-21.29-3.09c-5.34,2.7-7.1,7.51-7.64,11.21
						s-1.15,7.92-1.15,7.92S254.37,115.71,253.91,118.87"/>
					<path id="Path_1099_1_" class="st15" d="M264.17,104.32c4.68,4.64,11.74,5.91,17.75,3.19c0,0,4.56-2.69,5.98-0.63
						c0,0,3.18-8.32-3.97-10.47c0,0,1.64-0.82,1.55-1.89s-2.45-4.28-9.83-2.67c0.15-1.49-0.72-2.89-2.12-3.42
						c-2.36-0.77-10.25,1.91-12.13,7.33C261.4,95.76,259.87,99.74,264.17,104.32"/>
					<path id="Path_1100_1_" class="st15" d="M288.53,101.65c-0.05-0.39-0.13-0.77-0.25-1.15c-2.06,1.08-6.48,2.56-13.36,0.77
						c-6.08-1.58-6.57-7.69-6.04-12.19c-2.38,0.84-4.49,2.3-6.12,4.23c0.01,2.21,1.14,5.42,6.14,8.8
						C275.99,106.88,284.95,103.4,288.53,101.65"/>
					<path id="Path_1101_1_" class="st18" d="M196.93,82.94l0.02,1.21c0.49,0.25,0.86,0.67,1.03,1.19c0.25,0.55,0.47,1.12,0.65,1.7
						l6.31-2.29l0.03-0.49l-0.5-1.51c-0.08-0.14-0.07-0.31,0.01-0.45l-3.2-1.41L196.93,82.94z"/>
					<path id="Path_1102_1_" class="st15" d="M255.95,140c0,0-30.21-15.79-35-21.16s-7.03-12.87-14.34-34.33c0,0-0.26-1-1.82-0.89
						s-5.91,1.64-6.5,2.37c-0.64,0.66-0.91,1.59-0.71,2.49c0.21,1.01,8.83,34.43,11.28,39.43c2.44,5,24.56,25.56,29.16,30.36
						S255.96,140,255.95,140"/>
					<path id="Path_1103_1_" class="st15" d="M203.52,83.84c-1.93,0.47-4.76,1.56-5.23,2.14c-0.64,0.66-0.91,1.59-0.71,2.49
						c0.21,1.01,8.83,34.43,11.28,39.43s24.56,25.56,29.16,30.36c1.44,1.5,3.73,0.27,6.2-2.12c0.2-1.26,0.26-2.05,0.11-2.18
						c-1.06-0.98-2.47-2.13-10.25-8.6s-19.85-17.62-21.85-21.73s-8.19-25.92-10.19-32.46C200.09,84.88,203.27,83.91,203.52,83.84"/>
					<path id="Path_1104_1_" class="st18" d="M206.12,75.74c0.32-1.71,1.11-3.29,2.28-4.58c0.7-0.74-2.67-2.79-3.99,0.76
						c0,0-1.19,1.34-1.87,0.95s-1.76-10.8-1.88-11.93c-0.08-0.66-0.67-1.13-1.33-1.05c-0.16,0.02-0.32,0.07-0.46,0.15
						c-0.35,0.32-0.16,1.97-0.06,4.06c0.16,1.55,0.16,3.12,0.01,4.68c-0.18,0.21-0.66,0.21-1.16-0.92s-3.04-7.46-3.61-7.77
						s-1.6,0.27-1.51,1.33s2.9,7.35,3.01,8.27s-0.81,0.88-1.22,0.38s-4.41-6.89-4.93-7.2s-1.56,0.32-1.17,1.39s3.96,7.35,3.93,7.88
						s-0.71,0.93-1.88,0.11s-3.39-2.8-3.83-2.82s-0.99,1.31,0.04,2.37s3.52,3.76,3.84,4.21c1.67,2.36,2.53,4.97,4.09,6.63
						c0.59,0.61,1.32,1.08,2.12,1.36c2.06,0.73,4.33,0.59,6.28-0.41C206.09,81.84,205.51,79,206.12,75.74"/>
					<path id="Path_1105_1_" class="st18" d="M256.51,217.29l-2,1.71h-16.67c0,0,0.65-2.06,1.74-2.71c0.31-0.14,0.65-0.21,0.99-0.21
						c0.34-0.43,0.79-0.77,1.29-1c2.2-0.67,4.44-1.21,6.7-1.62c2.04-0.35,4.01,0.35,4.98,0.35c0.83-0.02,1.65-0.09,2.47-0.21
						L256.51,217.29z"/>
					<path id="Path_1106_1_" class="st15" d="M296.87,150.05c0,0,3.07,2.16,4.54,8.7s5.19,39.77,5.89,45.54S307.77,219,295.04,219
						h-40.53v-5.93c-0.12-1.03,0.62-1.97,1.65-2.09c0.13-0.02,0.26-0.02,0.38-0.01c1.03,0,31.99-3.36,33.46-3.77
						c1.41-0.27,2.39-1.58,2.24-3.01c0.06-1.77-5.01-22.21-6.07-29.86S289.59,149.83,296.87,150.05"/>
					<path id="Path_1107_1_" class="st15" d="M307.52,207.13c0.12,5.47-1.7,11.87-12.47,11.87h-40.53v-4.66
						c0.99,1.24,2.99,2.66,6.89,2.66h31.93C298.22,217,307.34,213.47,307.52,207.13"/>
					<path id="Path_1108_1_" class="st15" d="M286.18,174.34c0.72,5.18,3.27,16.2,4.82,23.34c0.53,2.15,0.95,4.33,1.25,6.52
						c0.14,1.29-0.65,2.51-1.89,2.9c3.07-0.51,4.11-1.94,4.63-3.89c0.46-1.65,0.05-8.6-1.24-21.44c-0.23-2.25-0.48-4.69-0.76-7.3
						c-1.04-9.69,1.22-16.14,3.45-19.98c0.57-0.99,1.22-1.93,1.95-2.82c-0.42-0.61-0.93-1.16-1.51-1.62
						C289.59,149.83,285.12,166.68,286.18,174.34"/>
					<path id="Path_1109_1_" class="st20" d="M266.27,124.81c0,0,1.39-1.44,1.83-1.83s0.53,0.06,0.48,0.63s0.1,1.68-0.21,1.94
						s-1.84,0-2.16-0.13S266.27,124.81,266.27,124.81"/>
					<path id="Path_1110_1_" class="st21" d="M164.44,157.39c-0.01-0.25,0.18-0.47,0.44-0.48s0.47,0.18,0.48,0.44
						c0,0.01,0,0.03,0,0.04v2.07c0.01,0.25-0.18,0.47-0.44,0.48s-0.47-0.18-0.48-0.44c0-0.01,0-0.03,0-0.04V157.39z M161.31,159.08
						c-0.18-0.18-0.18-0.47,0-0.65c0.18-0.18,0.46-0.18,0.64-0.01c0,0,0.01,0.01,0.01,0.01l1.46,1.46c0.18,0.18,0.18,0.46,0.01,0.64
						c0,0-0.01,0.01-0.01,0.01c-0.18,0.18-0.47,0.18-0.65,0L161.31,159.08z M160.27,162.48c-0.25-0.01-0.45-0.23-0.44-0.48
						c0.01-0.24,0.2-0.43,0.44-0.44h2.07c0.25-0.01,0.47,0.19,0.48,0.44c0.01,0.25-0.19,0.47-0.44,0.48c-0.01,0-0.03,0-0.04,0
						H160.27z M161.96,165.61c-0.19,0.17-0.48,0.16-0.65-0.03c-0.16-0.17-0.16-0.44,0-0.62l1.46-1.47c0.18-0.18,0.47-0.18,0.65,0
						c0.18,0.18,0.18,0.46,0.01,0.64c0,0-0.01,0.01-0.01,0.01L161.96,165.61z M165.36,166.64c0.01,0.25-0.18,0.47-0.44,0.48
						s-0.47-0.18-0.48-0.44c0-0.01,0-0.03,0-0.04v-2.07c-0.01-0.25,0.18-0.47,0.44-0.48s0.47,0.18,0.48,0.44c0,0.01,0,0.03,0,0.04
						V166.64z M168.5,164.96c0.18,0.18,0.19,0.47,0.01,0.65s-0.47,0.19-0.65,0.01c0,0-0.01-0.01-0.01-0.01l-1.46-1.46
						c-0.17-0.19-0.16-0.48,0.02-0.65c0.17-0.16,0.44-0.16,0.62,0L168.5,164.96z M169.52,161.55c0.25-0.01,0.47,0.19,0.48,0.44
						c0.01,0.25-0.19,0.47-0.44,0.48c-0.01,0-0.03,0-0.04,0h-2.07c-0.25-0.01-0.45-0.23-0.44-0.48c0.01-0.24,0.2-0.43,0.44-0.44
						H169.52z M167.84,158.42c0.18-0.18,0.46-0.18,0.64-0.01c0,0,0,0,0.01,0.01c0.18,0.18,0.18,0.47,0,0.65l-1.46,1.47
						c-0.19,0.17-0.48,0.16-0.65-0.03c-0.16-0.18-0.16-0.45,0-0.62L167.84,158.42z"/>
					<path id="Path_1111_1_" class="st13" d="M74.53,237.11h2.6c0.48,0,0.86,0.39,0.87,0.87v2.61c0,0.48-0.39,0.86-0.87,0.87h-2.6
						c-0.48,0-0.87-0.39-0.87-0.87v-2.61C73.66,237.5,74.05,237.11,74.53,237.11L74.53,237.11"/>
					<path id="Path_1112_1_" class="st13" d="M83.42,237.11h2.61c0.48,0,0.86,0.39,0.87,0.87v2.61c0,0.48-0.39,0.86-0.87,0.87h-2.61
						c-0.48,0-0.86-0.39-0.87-0.87v-2.61C82.56,237.5,82.94,237.11,83.42,237.11"/>
					<path id="Path_1113_1_" class="st13" d="M92.31,237.11h2.61c0.48,0,0.86,0.39,0.87,0.87v2.61c0,0.48-0.39,0.86-0.87,0.87h-2.61
						c-0.48,0-0.86-0.39-0.87-0.87v-2.61C91.45,237.5,91.83,237.11,92.31,237.11"/>
					<path id="Path_1114_1_" class="st13" d="M101.21,237.11h2.6c0.48,0,0.87,0.39,0.87,0.87v2.61c0,0.48-0.39,0.87-0.87,0.87h-2.6
						c-0.48,0-0.87-0.39-0.87-0.87v-2.61C100.34,237.5,100.73,237.11,101.21,237.11L101.21,237.11"/>
					<path id="Path_1115_1_" class="st21" d="M131.33,35.76c0-0.25,0.21-0.46,0.46-0.46c0.25,0,0.46,0.21,0.46,0.46v2.07
						c0,0.25-0.21,0.46-0.46,0.46c-0.25,0-0.46-0.21-0.46-0.46l0,0V35.76z M128.19,37.45c-0.17-0.19-0.15-0.48,0.04-0.65
						c0.18-0.16,0.44-0.16,0.62,0l1.46,1.46c0.17,0.19,0.16,0.48-0.02,0.65c-0.17,0.16-0.44,0.16-0.62,0L128.19,37.45z
						 M127.17,40.85c-0.25,0-0.46-0.2-0.46-0.46c0,0,0,0,0,0c0-0.25,0.2-0.45,0.45-0.46c0,0,0.01,0,0.01,0h2.07
						c0.25,0,0.45,0.2,0.46,0.45c0,0,0,0,0,0c0,0.25-0.2,0.46-0.46,0.46H127.17z M128.84,43.98c-0.19,0.17-0.48,0.16-0.65-0.02
						c-0.16-0.18-0.16-0.45,0-0.63l1.47-1.47c0.18-0.18,0.47-0.18,0.65,0c0.18,0.17,0.18,0.46,0.01,0.64c0,0-0.01,0.01-0.01,0.01
						L128.84,43.98z M132.24,45.01c0,0.25-0.21,0.46-0.46,0.46c-0.25,0-0.46-0.21-0.46-0.46v-2.07c0-0.25,0.21-0.46,0.46-0.46
						c0.25,0,0.46,0.21,0.46,0.46V45.01z M135.38,43.33c0.18,0.18,0.18,0.47,0,0.65c-0.18,0.18-0.47,0.18-0.65,0l-1.46-1.47
						c-0.18-0.17-0.18-0.46-0.01-0.64c0,0,0.01-0.01,0.01-0.01c0.18-0.18,0.47-0.18,0.65,0L135.38,43.33z M136.41,39.93
						c0.25,0,0.45,0.2,0.46,0.45c0,0,0,0,0,0c0,0.25-0.2,0.46-0.46,0.46h-2.07c-0.25,0-0.46-0.2-0.46-0.46c0,0,0,0,0,0
						c0-0.25,0.2-0.46,0.45-0.46c0,0,0,0,0.01,0H136.41z M134.73,36.79c0.19-0.17,0.48-0.16,0.65,0.02c0.16,0.18,0.16,0.45,0,0.63
						l-1.46,1.46c-0.18,0.18-0.47,0.18-0.65,0c-0.18-0.18-0.18-0.46-0.01-0.64c0,0,0.01-0.01,0.01-0.01L134.73,36.79z"/>
					<path id="Path_1116_1_" class="st7" d="M152.77,124.7h2.6c0.48,0,0.86,0.39,0.87,0.87v2.61c0,0.48-0.39,0.86-0.87,0.87h-2.6
						c-0.48,0-0.86-0.39-0.87-0.87v-2.61C151.91,125.09,152.29,124.7,152.77,124.7"/>
					<path id="Path_1117_1_" class="st7" d="M161.66,124.7h2.6c0.48,0,0.87,0.39,0.87,0.87v2.61c0,0.48-0.39,0.87-0.87,0.87h-2.6
						c-0.48,0-0.87-0.39-0.87-0.87v-2.61C160.8,125.09,161.19,124.7,161.66,124.7"/>
					<path id="Path_1118_1_" class="st7" d="M170.55,124.7h2.61c0.48,0,0.86,0.39,0.87,0.87v2.61c0,0.48-0.39,0.86-0.87,0.87h-2.61
						c-0.48,0-0.86-0.39-0.87-0.87v-2.61C169.69,125.09,170.08,124.7,170.55,124.7"/>
					<path id="Path_1119_1_" class="st7" d="M179.45,124.7h2.6c0.48,0,0.86,0.39,0.87,0.87v2.61c0,0.48-0.39,0.86-0.87,0.87h-2.6
						c-0.48,0-0.87-0.39-0.87-0.87v-2.61C178.58,125.09,178.97,124.7,179.45,124.7"/>
					<path id="Path_1120_1_" class="st6" d="M404.55,87.62v56.9h-9.01c-6.46,0.06-11.66,5.35-11.6,11.81
						c0.06,6.38,5.22,11.54,11.6,11.6h9.01v116.65H353V22.59c15.51,7.51,25.37,23.2,25.42,40.43c0.04,13.57,11.04,24.56,24.61,24.6
						H404.55z"/>
					<path id="Path_1121_1_" class="st13" d="M357.5,25.11v259.47h-9V20.7C351.65,21.83,354.67,23.3,357.5,25.11"/>
					<path id="Path_1122_1_" class="st13" d="M368.61,35.1v249.48h-9V26.54C362.99,28.97,366.02,31.85,368.61,35.1"/>
					<path id="Path_1123_1_" class="st13" d="M379.73,70.94v213.64h-9V37.97c5.01,7.39,7.69,16.11,7.68,25.04
						C378.41,65.71,378.86,68.39,379.73,70.94"/>
					<path id="Path_1124_1_" class="st13" d="M390.85,84.38v61.14c-5.92,2.58-8.62,9.47-6.03,15.39c1.18,2.7,3.33,4.85,6.03,6.03
						v117.64h-9V75.5C384.03,79.19,387.13,82.24,390.85,84.38"/>
					<path id="Path_1125_1_" class="st13" d="M401.96,87.6v56.93h-6.42c-0.87,0-1.73,0.1-2.58,0.29V85.46
						C395.8,86.74,398.85,87.46,401.96,87.6 M401.96,167.93v116.65h-9V167.64c0.85,0.19,1.71,0.29,2.58,0.29H401.96z"/>
					<path id="Path_1126_1_" class="st7" d="M281.31,263.75h2.61c0.48,0,0.87,0.39,0.87,0.87l0,0v2.6c0,0.48-0.39,0.87-0.87,0.87
						h-2.61c-0.48,0-0.87-0.39-0.87-0.87v-2.6C280.44,264.14,280.83,263.75,281.31,263.75"/>
					<path id="Path_1127_1_" class="st7" d="M290.2,263.75h2.6c0.48,0,0.86,0.38,0.87,0.86c0,0,0,0,0,0.01v2.6
						c0,0.48-0.38,0.87-0.86,0.87c0,0,0,0,0,0h-2.6c-0.48,0-0.87-0.39-0.87-0.86c0,0,0,0,0,0v-2.6
						C289.34,264.14,289.72,263.75,290.2,263.75C290.2,263.75,290.2,263.75,290.2,263.75"/>
					<path id="Path_1128_1_" class="st7" d="M299.09,263.75h2.61c0.48,0,0.87,0.39,0.87,0.87v2.6c0,0.48-0.39,0.87-0.87,0.87h-2.61
						c-0.48,0-0.87-0.39-0.87-0.87v-2.6C298.23,264.14,298.61,263.75,299.09,263.75"/>
					<path id="Path_1129_1_" class="st7" d="M307.99,263.75h2.6c0.48,0,0.86,0.38,0.87,0.86c0,0,0,0.01,0,0.01v2.6
						c0,0.48-0.38,0.87-0.86,0.87c0,0,0,0-0.01,0h-2.6c-0.48,0-0.87-0.39-0.87-0.86c0,0,0,0,0,0v-2.6
						C307.12,264.14,307.51,263.75,307.99,263.75C307.99,263.75,307.99,263.75,307.99,263.75"/>
					<path id="Path_1130_1_" class="st7" d="M296.23,27.65h2.61c0.48,0,0.87,0.39,0.87,0.87v2.6c0,0.48-0.39,0.87-0.87,0.87h-2.61
						c-0.48,0-0.87-0.39-0.87-0.87v-2.6C295.36,28.04,295.75,27.65,296.23,27.65"/>
					<path id="Path_1131_1_" class="st7" d="M305.12,27.65h2.6c0.48,0,0.87,0.39,0.87,0.87c0,0,0,0,0,0v2.6
						c0,0.48-0.39,0.87-0.87,0.87h-2.6c-0.48,0-0.86-0.38-0.87-0.86c0,0,0,0,0-0.01v-2.6C304.26,28.04,304.64,27.65,305.12,27.65
						C305.12,27.65,305.12,27.65,305.12,27.65"/>
					<path id="Path_1132_1_" class="st7" d="M314.01,27.65h2.6c0.48,0,0.87,0.39,0.87,0.87c0,0,0,0,0,0v2.6
						c0,0.48-0.39,0.87-0.87,0.87c0,0,0,0,0,0h-2.6c-0.48,0-0.87-0.39-0.87-0.87v-2.6C313.15,28.04,313.54,27.65,314.01,27.65"/>
					<path id="Path_1133_1_" class="st7" d="M322.9,27.65h2.61c0.48,0,0.87,0.39,0.87,0.87v2.6c0,0.48-0.39,0.87-0.87,0.87h-2.61
						c-0.48,0-0.87-0.39-0.87-0.87v-2.6C322.04,28.04,322.43,27.65,322.9,27.65"/>
					<path id="Path_1134_1_" class="st7" d="M421.07,188.08h2.6c0.48,0,0.87,0.39,0.87,0.87c0,0,0,0,0,0v2.6
						c0,0.48-0.39,0.87-0.87,0.87h-2.6c-0.48,0-0.87-0.39-0.87-0.87v-2.6C420.2,188.47,420.59,188.08,421.07,188.08
						C421.07,188.08,421.07,188.08,421.07,188.08"/>
					<path id="Path_1135_1_" class="st7" d="M429.96,188.08h2.61c0.48,0,0.87,0.39,0.87,0.87v2.6c0,0.48-0.39,0.87-0.87,0.87h-2.61
						c-0.48,0-0.86-0.39-0.87-0.87v-2.6C429.1,188.47,429.48,188.08,429.96,188.08L429.96,188.08"/>
					<path id="Path_1136_1_" class="st7" d="M438.85,188.08h2.61c0.48,0,0.87,0.39,0.87,0.87v2.6c0,0.48-0.39,0.86-0.87,0.87h-2.61
						c-0.48,0-0.87-0.39-0.87-0.87v-2.6C437.99,188.47,438.37,188.08,438.85,188.08"/>
					<path id="Path_1137_1_" class="st7" d="M447.75,188.08h2.6c0.48,0,0.87,0.38,0.87,0.86c0,0,0,0,0,0.01v2.6
						c0,0.48-0.39,0.87-0.87,0.87h-2.6c-0.48,0-0.87-0.39-0.87-0.87v-2.6C446.88,188.47,447.27,188.08,447.75,188.08"/>
					<path id="Path_1138_1_" class="st15" d="M117.82,277.83c0.03-6.1,0.71-12.19,2.02-18.15c0.01-0.05,0.03-0.11,0.04-0.16
						c0.07-0.28,0.29-0.81,0.84-0.66c0.75,0.2,6.86,3.64,12.57,9.45c5.71,5.82,5.62-2.93,0.66-6.37s-10.02-4.89-11.54-6.21
						c-0.87-0.66-1.35-1.73-1.25-2.82c1.18-6.66,2.07-13.49,2.69-20.21l0.01-0.01c0,0,0.29-1.47,1.68,0.25s6.8,7.71,11.01,8.11
						s0.35-6.27-5.59-9.54s-6.67-3.97-6.61-4.76v-0.01c0.38-5.3,0.6-10.48,0.68-15.41c0,0,0.24-0.89,1.03-0.25s6.69,7.4,9.85,6.69
						s0.09-6.48-4.93-8.5c-5.02-2.02-5.9-2.63-5.9-3.37c-0.05-14.61-1.34-26.38-3.28-31.38c-2.02-5.21,10.81,6.58,22.66,25.83
						c1.02,1.75,0.95,2.76,0.29,4.88c-0.71,2.28-1.49,7.41,0.37,6.22c1.86-1.19,2.11-5.71,2.26-5.79c0.07-0.05,0.17-0.03,0.23,0.04
						c1.94,3.44,3.81,7.07,5.54,10.83c1.78,4.23-0.6,7.11-3.92,11.24c-3.44,4.28-2.82,8.82,0.84,6.91s5.36-10.79,5.66-11.03
						c0.28-0.22,0.48,0.11,0.51,0.17c2.46,6.26,4.31,12.74,5.52,19.35c0.25,3.29-2.44,6.02-5.25,10.46
						c-2.83,4.49-0.66,7.19,1.58,6.57s3.75-6.08,4.23-6.43c0.45-0.33,0.59-0.05,0.61,0c0.3,6.43-0.4,12.87-2.08,19.09
						c-1.3,4.82-2.89,9.57-4.75,14.21h-29.04L117.82,277.83z"/>
					<path id="Path_1139_1_" class="st15" d="M151.57,287.07c-2.62-32.16-8.29-64-16.93-95.09c-0.2-0.6-0.85-0.93-1.45-0.73
						c-0.57,0.19-0.9,0.79-0.75,1.37c8.6,30.88,14.24,62.5,16.86,94.45H151.57z"/>
					<path id="Path_1140_1_" class="st22" d="M175.51,217.16c22.02-13.04,28.1,14.1,23.64,26.39c-3.31,9.1-15.04,29.04-23.3,43.51
						h-30.72C149.12,256.64,159.31,226.76,175.51,217.16"/>
					<path id="Path_1141_1_" class="st7" d="M158.51,287.07c7.31-22.6,16.84-44.42,28.45-65.15c0.31-0.46,0.89-0.66,1.42-0.49
						c0.41,0.08,0.67,0.48,0.58,0.89c-0.02,0.08-0.04,0.15-0.08,0.22c-11.51,20.53-20.98,42.14-28.25,64.53H158.51z"/>
					<path id="Path_1142_1_" class="st13" d="M81.16,201.6c6.79-25.66,30.72-11.61,41,10.33c5.8,12.38,15.85,45.05,27.16,75.14
						H120.6l-8.54-4.79C92.2,245.13,78.45,211.85,81.16,201.6"/>
					<path id="Path_1143_1_" class="st7" d="M127.59,280.9c-13.61-26.18-24.75-53.57-33.27-81.81c-0.17-0.57,0.16-1.16,0.72-1.32
						c0.57-0.17,1.16,0.16,1.33,0.72c0.06,0.22,12.57,44.38,36.43,87.61L127.59,280.9z"/>
					<rect id="Rectangle_930_1_" x="460.11" y="205.94" class="st5" width="27.31" height="8.27"/>
					<rect id="Rectangle_931_1_" x="448.16" y="215.87" class="st5" width="27.32" height="8.27"/>
					<path id="Path_1144_1_" class="st23" d="M476.78,215.87h17.28c0.49,2.73,0.79,5.5,0.89,8.27h-18.17V215.87z"/>
					<rect id="Rectangle_932_1_" x="460.11" y="225.8" class="st5" width="27.31" height="8.28"/>
					<path id="Path_1145_1_" class="st23" d="M488.72,225.8h6.26c0.01,0.15,0.01,0.3,0.01,0.46c0,2.62-0.17,5.23-0.53,7.82h-5.74
						L488.72,225.8z"/>
					<path id="Path_1146_1_" class="st23" d="M476.78,235.73h17.43c-0.46,2.8-1.13,5.57-2,8.28h-15.43V235.73z"/>
					<path id="Path_1147_1_" class="st2" d="M430.98,244.51c0-0.26,0.21-0.46,0.46-0.46c0.26,0,0.46,0.21,0.46,0.46v2.07
						c0,0.26-0.21,0.46-0.46,0.46c-0.26,0-0.46-0.21-0.46-0.46V244.51z M427.85,246.19c-0.18-0.18-0.18-0.46-0.01-0.64
						c0,0,0,0,0.01-0.01c0.18-0.18,0.47-0.18,0.65,0l1.46,1.47c0.18,0.18,0.18,0.47,0,0.65c-0.18,0.18-0.47,0.18-0.65,0
						L427.85,246.19z M426.82,249.6c-0.26,0-0.46-0.21-0.46-0.46s0.21-0.46,0.46-0.46h2.07c0.26,0,0.46,0.21,0.46,0.46
						s-0.21,0.46-0.46,0.46H426.82z M428.5,252.73c-0.18,0.18-0.47,0.18-0.65,0s-0.18-0.47,0-0.65l1.46-1.46
						c0.19-0.17,0.48-0.16,0.65,0.02c0.16,0.18,0.16,0.45,0,0.63L428.5,252.73z M431.9,253.77c0,0.26-0.21,0.46-0.46,0.46
						c-0.26,0-0.46-0.21-0.46-0.46v-2.07c0-0.26,0.21-0.46,0.46-0.46c0.26,0,0.46,0.21,0.46,0.46V253.77z M435.03,252.08
						c0.18,0.18,0.18,0.46,0.01,0.64c0,0,0,0-0.01,0.01c-0.17,0.18-0.46,0.18-0.63,0.01c0,0-0.01-0.01-0.01-0.01l-1.47-1.46
						c-0.18-0.18-0.18-0.47,0-0.65s0.47-0.18,0.65,0l0,0L435.03,252.08z M436.06,248.68c0.26,0,0.46,0.21,0.46,0.46
						s-0.21,0.46-0.46,0.46h-2.07c-0.26,0-0.46-0.21-0.46-0.46s0.21-0.46,0.46-0.46H436.06z M434.38,245.54
						c0.18-0.18,0.47-0.19,0.65-0.01s0.19,0.47,0.01,0.65c0,0-0.01,0.01-0.01,0.01l-1.46,1.47c-0.19,0.17-0.48,0.16-0.65-0.02
						c-0.16-0.18-0.16-0.45,0-0.63L434.38,245.54z"/>
					<path id="Path_1148_1_" class="st15" d="M480.25,202.37c6.35,20.62,8.72,31.83,12.14,41.1c1.73-5.57,2.61-11.38,2.61-17.21
						v-29.59C494.99,142.88,472.41,176.96,480.25,202.37"/>
					<path id="Path_1149_1_" class="st15" d="M401.52,280.83c-5.9-7.8-10.32-16.62-13.03-26.01c-5.26-18.58,16.33,2.01,33.35,26.01
						H401.52z"/>
					<path id="Path_1150_1_" class="st15" d="M431.2,280.83c-5.32-8.99-10.59-20.81-11.42-33.26c-1.75-26.19-2.25-34.42-7.24-38.66
						c-4.28-3.64,47.32-2.86,68.95,54.56c-6.47,7.78-14.84,13.76-24.3,17.36L431.2,280.83z"/>
					<path id="Path_1151_1_" class="st15" d="M419.93,208c19.53,17.77,34.9,44.04,46.16,68.56c-0.54,0.32-1.08,0.63-1.63,0.92
						c-11.54-25.18-27.42-52.21-47.68-69.78C417.72,207.74,418.78,207.84,419.93,208"/>
					<path id="Path_1152_1_" class="st6" d="M475.35,179.23c4.31,10.61,10.66,34.41,18.17,60.02
						c-3.05,13.16-10.56,24.85-21.24,33.11c-18.2-25.98-34.04-55.5-39.96-78.9C420.4,146.36,457.47,135.14,475.35,179.23"/>
					<path id="Path_1153_1_" class="st22" d="M482.76,261.87c-25.2-44.06-36.93-95.75-36.98-95.97c-0.1-0.51,0.22-1.01,0.73-1.11
						c0.49-0.1,0.97,0.2,1.1,0.69c0.05,0.22,11.62,51.18,36.36,94.78C483.58,260.8,483.18,261.34,482.76,261.87"/>
					<path id="Path_1154_1_" class="st22" d="M458.42,280.34c-1.01-4.68-2.55-9.23-4.6-13.55c-8.4-17.63-29.39-24.49-35.36-21.8
						c-4.88,2.2-14.7,15.79-7.37,35.84h46.09C457.6,280.67,458.01,280.51,458.42,280.34"/>
					<path id="Path_1155_1_" class="st7" d="M446.26,280.83c1.07-2.88,3.28-9.21,3.57-13.03c0.03-0.29-0.19-0.55-0.48-0.57
						c0,0-0.01,0-0.01,0c-0.29-0.02-0.55,0.2-0.57,0.49c0,0,0,0,0,0c-0.27,3.56-2.29,9.45-3.38,12.41
						c-2.66-5.22-5.69-10.24-9.09-15.01c1.14-4.2,1.71-8.54,1.7-12.89c-0.02-0.3-0.27-0.52-0.57-0.51
						c-0.29,0.02-0.51,0.26-0.51,0.54c0.02,3.95-0.46,7.89-1.44,11.72c-4.45-6.1-9.45-11.76-14.96-16.92
						c-0.43-0.41-1.11-0.38-1.52,0.05c-0.41,0.43-0.38,1.11,0.05,1.52c2.87,2.7,5.51,5.44,7.93,8.19c-2.9-0.56-5.85-0.72-8.8-0.49
						c-0.29,0.03-0.51,0.29-0.48,0.59c0.03,0.29,0.3,0.51,0.59,0.48c0,0,0,0,0,0c3.3-0.24,6.61,0.01,9.83,0.75
						c3.52,4.12,6.76,8.48,9.67,13.05c-7.46-0.74-14.98-0.51-22.39,0.69c-0.29,0.06-0.48,0.34-0.43,0.63s0.34,0.48,0.63,0.43l0,0
						c7.58-1.23,15.29-1.42,22.92-0.59c1.8,2.88,3.39,5.72,4.8,8.48L446.26,280.83z"/>
					<path id="Path_1156_1_" class="st22" d="M408.56,56.26h2.96c0.54,0,0.99,0.44,0.99,0.99v2.96c0,0.54-0.44,0.99-0.99,0.99h-2.96
						c-0.55,0-0.99-0.44-0.99-0.99v-2.96C407.58,56.7,408.02,56.26,408.56,56.26"/>
					<path id="Path_1157_1_" class="st22" d="M418.67,56.26h2.95c0.54,0,0.99,0.44,0.99,0.99v2.96c0,0.54-0.44,0.99-0.99,0.99h-2.95
						c-0.54,0-0.99-0.44-0.99-0.99v-2.96C417.68,56.7,418.12,56.26,418.67,56.26"/>
					<path id="Path_1158_1_" class="st22" d="M428.77,56.26h2.96c0.54,0,0.98,0.44,0.98,0.99v2.96c0,0.54-0.44,0.99-0.98,0.99h-2.96
						c-0.54,0-0.98-0.44-0.98-0.99v-2.96C427.79,56.71,428.23,56.27,428.77,56.26"/>
					<path id="Path_1159_1_" class="st22" d="M438.89,56.26h2.96c0.54,0,0.98,0.44,0.98,0.99v2.96c0,0.54-0.44,0.98-0.98,0.99h-2.96
						c-0.54,0-0.99-0.44-0.99-0.99v-2.96C437.9,56.71,438.34,56.26,438.89,56.26"/>
					<path id="Path_1160_1_" class="st21" d="M484.22,51.43c0-0.29,0.24-0.53,0.53-0.53s0.53,0.24,0.53,0.53v2.35
						c0,0.29-0.24,0.53-0.53,0.53s-0.53-0.24-0.53-0.53V51.43z M480.65,53.34c-0.2-0.2-0.2-0.54,0-0.74c0.2-0.2,0.52-0.21,0.73-0.01
						c0,0,0.01,0.01,0.01,0.01l1.66,1.66c0.2,0.2,0.2,0.54,0,0.74c-0.2,0.2-0.54,0.2-0.74,0L480.65,53.34z M479.48,57.21
						c-0.29,0-0.52-0.23-0.52-0.52c0-0.29,0.23-0.52,0.52-0.52c0,0,0,0,0,0h2.35c0.29,0,0.52,0.23,0.52,0.52
						c0,0.29-0.23,0.52-0.52,0.52H479.48z M481.39,60.77c-0.2,0.2-0.54,0.2-0.74,0c-0.2-0.2-0.2-0.54,0-0.74l0,0l1.66-1.67
						c0.2-0.2,0.54-0.2,0.74,0c0.2,0.2,0.2,0.54,0,0.74L481.39,60.77z M485.27,61.95c0,0.29-0.24,0.53-0.53,0.53
						s-0.53-0.24-0.53-0.53v-2.35c0-0.29,0.24-0.53,0.53-0.53s0.53,0.24,0.53,0.53l0,0V61.95z M488.83,60.03
						c0.2,0.2,0.2,0.54,0,0.74c-0.2,0.2-0.54,0.2-0.74,0l0,0l-1.66-1.66c-0.2-0.2-0.2-0.54,0-0.74c0.2-0.2,0.54-0.2,0.74,0
						L488.83,60.03z M490,56.16c0.29,0,0.52,0.23,0.52,0.52c0,0.29-0.23,0.52-0.52,0.52c0,0,0,0,0,0h-2.35
						c-0.29,0-0.52-0.23-0.52-0.52c0-0.29,0.23-0.52,0.52-0.52H490z M488.09,52.6c0.2-0.2,0.52-0.21,0.73-0.01
						c0,0,0.01,0.01,0.01,0.01c0.2,0.21,0.2,0.53,0,0.74l-1.66,1.67c-0.2,0.2-0.54,0.2-0.74,0c-0.2-0.2-0.2-0.54,0-0.74L488.09,52.6
						z"/>
					<path id="Path_1161_1_" class="st21" d="M77.5,144.38c-0.01-0.29,0.21-0.53,0.5-0.54c0.29-0.01,0.53,0.21,0.54,0.5
						c0,0.02,0,0.03,0,0.05v2.35c-0.01,0.29-0.26,0.51-0.54,0.5c-0.27-0.01-0.49-0.23-0.5-0.5V144.38z M73.94,146.29
						c-0.2-0.2-0.21-0.52-0.01-0.73c0,0,0.01-0.01,0.01-0.01c0.21-0.2,0.54-0.2,0.74,0l1.66,1.66c0.2,0.2,0.21,0.53,0,0.74
						s-0.53,0.21-0.74,0l0,0L73.94,146.29z M72.76,150.16c-0.29,0-0.53-0.24-0.53-0.53s0.24-0.53,0.53-0.53h2.36
						c0.29,0,0.53,0.24,0.53,0.53s-0.24,0.53-0.53,0.53H72.76z M74.68,153.72c-0.21,0.2-0.54,0.2-0.74,0
						c-0.2-0.2-0.21-0.52-0.01-0.73c0,0,0.01-0.01,0.01-0.01l1.66-1.66c0.2-0.2,0.53-0.2,0.74,0s0.2,0.53,0,0.74L74.68,153.72z
						 M78.54,154.89c0.01,0.29-0.21,0.53-0.5,0.54c-0.29,0.01-0.53-0.21-0.54-0.5c0-0.02,0-0.03,0-0.05v-2.35
						c-0.01-0.29,0.21-0.53,0.5-0.54c0.29-0.01,0.53,0.21,0.54,0.5c0,0.02,0,0.03,0,0.05V154.89z M82.11,152.98
						c0.2,0.2,0.2,0.54,0,0.74c-0.2,0.2-0.54,0.2-0.74,0l-1.67-1.66c-0.2-0.2-0.2-0.54,0-0.74s0.54-0.2,0.74,0l0,0L82.11,152.98z
						 M83.28,149.11c0.29,0,0.53,0.24,0.53,0.53s-0.24,0.53-0.53,0.53h-2.35c-0.29,0-0.53-0.24-0.53-0.53s0.24-0.53,0.53-0.53H83.28
						z M81.37,145.55c0.2-0.2,0.54-0.2,0.74,0s0.2,0.54,0,0.74l-1.66,1.66c-0.2,0.2-0.54,0.2-0.74,0c-0.2-0.2-0.2-0.54,0-0.74
						L81.37,145.55z"/>
					<path id="Path_1162_1_" class="st15" d="M56.46,281.36h458.35c3.26,0,5.91,2.64,5.91,5.91s-2.64,5.91-5.91,5.91h-19.92
						c-1.81,0-3.28,1.47-3.28,3.28c0,1.81,1.47,3.28,3.28,3.28h7.29c2.26,0,4.1,1.84,4.1,4.1s-1.84,4.1-4.1,4.1H69.76
						c-2.26,0-4.1-1.84-4.1-4.1s1.84-4.1,4.1-4.1h5.74c1.81,0,3.28-1.47,3.28-3.28c0-1.81-1.47-3.28-3.28-3.28c0,0,0,0-0.01,0H56.46
						c-3.26,0-5.91-2.64-5.91-5.91S53.2,281.36,56.46,281.36 M59.54,307.93L59.54,307.93c-2.17-0.01-3.93-1.76-3.94-3.93v-0.32
						c0-2.17,1.76-3.94,3.94-3.94s3.94,1.76,3.94,3.94V304C63.48,306.18,61.71,307.94,59.54,307.93"/>
				</g>
			</g>
		</g>
	</g>
</g>
</svg>
