<?xml version="1.0" encoding="utf-8"?>
<!-- Generator: Adobe Illustrator 25.0.0, SVG Export Plug-In . SVG Version: 6.00 Build 0)  -->
<svg version="1.1" id="Layer_1" xmlns="http://www.w3.org/2000/svg" xmlns:xlink="http://www.w3.org/1999/xlink" x="0px" y="0px"
	 viewBox="0 0 43.82 44.86" style="enable-background:new 0 0 43.82 44.86;" xml:space="preserve" width="20.221" height="20.156">
<style type="text/css">
	.st0{fill:#7B8A8E;}
	.st1{fill:#7B8A8E;stroke:#7B8A8E;}
	.st2{fill:#4BCD3E;}
</style>
<path id="audit" width="20.221" height="20.156" class="st1" d="M27.9,11.09h-3.48c-0.51-1.44-2.1-2.2-3.54-1.69c-0.79,0.28-1.41,0.9-1.69,1.69h-3.53
	c-1.53,0-2.77,1.24-2.77,2.77v16.26c0,1.53,1.24,2.77,2.77,2.77H27.9c1.53,0,2.77-1.24,2.77-2.77V13.86
	C30.67,12.34,29.43,11.1,27.9,11.09L27.9,11.09z M20.88,12.95v-0.93c0-0.51,0.41-0.92,0.92-0.92s0.92,0.41,0.92,0.92v0.93h1.85v1.8
	h-5.54v-1.8H20.88z M28.82,30.13c0,0.51-0.41,0.92-0.92,0.92H15.66c-0.51,0-0.92-0.41-0.92-0.92V13.86c0-0.51,0.42-0.92,0.92-0.92
	h1.53v3.64h9.24v-3.64h1.48c0.51,0,0.92,0.41,0.92,0.92L28.82,30.13z M25.32,19.88l1.36,1.24l-5.92,6.5l-3.91-3.78l1.28-1.33
	l2.54,2.46L25.32,19.88z"/>
</svg>
