<?xml version="1.0" encoding="utf-8"?>
<!-- Generator: Adobe Illustrator 25.0.0, SVG Export Plug-In . SVG Version: 6.00 Build 0)  -->
<svg version="1.1" id="Layer_1" xmlns="http://www.w3.org/2000/svg" xmlns:xlink="http://www.w3.org/1999/xlink" x="0px" y="0px"
	 viewBox="0 0 43.82 44.86" style="enable-background:new 0 0 43.82 44.86;" xml:space="preserve">
<style type="text/css">
	.st0{fill:#7B8A8E;}
	.st1{fill:#7B8A8E;stroke:#7B8A8E;stroke-width:0.5;}
	.st2{fill:#4BCD3E;}
</style>
<g id="writing" transform="translate(-26.57 1.7)">
	<g id="Group_3315" transform="translate(26.57)">
		<g id="Group_3314">
			<path id="Path_388" class="st0" d="M29.13,19.85c0-0.5-0.4-0.9-0.9-0.9H19c-0.49-0.05-0.94,0.31-0.99,0.81
				c-0.05,0.49,0.31,0.94,0.81,0.99c0.06,0.01,0.12,0.01,0.18,0h9.23C28.72,20.74,29.12,20.35,29.13,19.85z"/>
			<path id="Path_389" class="st0" d="M19.01,22.54c-0.49-0.05-0.94,0.31-0.99,0.81c-0.05,0.49,0.31,0.94,0.81,0.99
				c0.06,0.01,0.12,0.01,0.18,0h5.6c0.49,0.05,0.94-0.31,0.99-0.81c0.05-0.49-0.31-0.94-0.81-0.99c-0.06-0.01-0.12-0.01-0.18,0
				H19.01z"/>
			<path id="Path_390" class="st0" d="M21.11,31.13h-3c-0.99,0-1.79-0.8-1.79-1.79V13.58c0-0.99,0.8-1.79,1.79-1.79h11.02
				c0.99,0,1.79,0.8,1.79,1.79v5.51c-0.05,0.49,0.31,0.94,0.81,0.99c0.49,0.05,0.94-0.31,0.99-0.81c0.01-0.06,0.01-0.12,0-0.18
				v-5.51c0-1.98-1.6-3.58-3.58-3.58H18.12c-1.98,0-3.58,1.61-3.58,3.58v15.76c0,1.98,1.61,3.58,3.58,3.58h3
				c0.49,0.05,0.94-0.31,0.99-0.81c0.05-0.49-0.31-0.94-0.81-0.99C21.24,31.13,21.18,31.13,21.11,31.13L21.11,31.13z"/>
			<path id="Path_391" class="st0" d="M34.3,22.96c-1.05-1.05-2.75-1.05-3.8,0l-4.92,4.91c-0.1,0.1-0.18,0.23-0.22,0.37l-1.07,3.53
				c-0.14,0.48,0.13,0.98,0.61,1.12c0.16,0.05,0.33,0.05,0.49,0.01l3.62-1c0.15-0.04,0.28-0.12,0.39-0.23l4.91-4.9
				C35.35,25.71,35.35,24.01,34.3,22.96z M28.29,30.23l-1.82,0.5L27,28.98l3.32-3.31l1.27,1.27L28.29,30.23z M33.03,25.5l-0.17,0.17
				l-1.27-1.27l0.17-0.17c0.38-0.31,0.95-0.26,1.27,0.13C33.3,24.69,33.3,25.16,33.03,25.5L33.03,25.5z"/>
			<path id="Path_392" class="st0" d="M28.23,15.37h-9.23c-0.49-0.05-0.94,0.31-0.99,0.81c-0.05,0.49,0.31,0.94,0.81,0.99
				c0.06,0.01,0.12,0.01,0.18,0h9.23c0.49,0.05,0.94-0.31,0.99-0.81c0.05-0.49-0.31-0.94-0.81-0.99
				C28.35,15.36,28.29,15.36,28.23,15.37z"/>
		</g>
	</g>
</g>
</svg>
