<?xml version="1.0" encoding="utf-8"?>
<!-- Generator: Adobe Illustrator 25.0.0, SVG Export Plug-In . SVG Version: 6.00 Build 0)  -->
<svg version="1.1" id="Layer_1" xmlns="http://www.w3.org/2000/svg" xmlns:xlink="http://www.w3.org/1999/xlink" x="0px" y="0px"
	 viewBox="0 0 43.82 44.86" style="enable-background:new 0 0 43.82 44.86;" xml:space="preserve">
<style type="text/css">
	.st0{fill:#7B8A8E;}
	.st1{fill:#7B8A8E;stroke:#7B8A8E;stroke-width:0.5;}
	.st2{fill:#4BCD3E;}
</style>
<g id="placeholder" transform="translate(177.97 684.165)">
	<g id="Group_3322" transform="translate(76)">
		<g id="Group_3321" transform="translate(0)">
			<g id="Path_409">
				<path class="st2" d="M-232.74-672.68c-4.48,0-8.12,3.64-8.11,8.12c0,1.51,0.42,2.98,1.21,4.26l6.44,10.38
					c0.12,0.2,0.34,0.32,0.57,0.32h0.01c0.24,0,0.45-0.13,0.57-0.33l6.28-10.48c2.3-3.85,1.04-8.84-2.82-11.13
					C-229.84-672.29-231.27-672.68-232.74-672.68z M-226.93-661.1l-5.71,9.53l-5.86-9.44c-1.97-3.18-0.99-7.35,2.19-9.32
					c3.18-1.97,7.35-0.99,9.32,2.19C-225.65-665.98-225.63-663.27-226.93-661.1z"/>
				<path class="st2" d="M-232.62-649.09c-0.42,0-0.79-0.21-1.01-0.56l-6.44-10.38c-0.84-1.36-1.29-2.93-1.29-4.53
					c0-4.75,3.86-8.62,8.61-8.62h0c1.55,0,3.08,0.42,4.41,1.22c4.08,2.43,5.42,7.73,2.99,11.82l-6.28,10.49
					C-231.82-649.31-232.21-649.1-232.62-649.09z M-232.74-672.18c-4.2,0-7.62,3.42-7.62,7.62c0,1.41,0.39,2.8,1.14,4l6.44,10.38
					c0.06,0.1,0.24,0.1,0.3,0l6.28-10.48c2.15-3.61,0.96-8.29-2.64-10.44C-230.02-671.81-231.37-672.18-232.74-672.18
					L-232.74-672.18z M-232.63-650.61l-6.29-10.14c-2.11-3.41-1.05-7.9,2.35-10.01c3.41-2.11,7.9-1.05,10.01,2.36
					c1.43,2.32,1.46,5.21,0.06,7.55l0,0L-232.63-650.61z M-232.75-670.84c-1.15,0-2.28,0.32-3.29,0.94
					c-2.94,1.82-3.85,5.69-2.03,8.63l5.43,8.74l5.29-8.83c1.2-2.02,1.19-4.51-0.05-6.51c-0.88-1.42-2.26-2.42-3.89-2.8
					C-231.78-670.79-232.27-670.84-232.75-670.84z"/>
			</g>
		</g>
	</g>
	<g id="Group_3324" transform="translate(82.938 7.281)">
		<g id="Group_3323" transform="translate(0)">
			<g id="Path_410">
				<path class="st2" d="M-239.68-676.12c-2.46,0-4.46,1.99-4.46,4.46s1.99,4.46,4.46,4.46c2.46,0,4.46-1.99,4.46-4.46
					C-235.22-674.12-237.22-676.12-239.68-676.12z M-239.68-668.68c-1.65,0-2.98-1.33-2.99-2.97c0-1.65,1.33-2.98,2.97-2.99
					c1.65,0,2.98,1.33,2.99,2.97c0,0,0,0,0,0.01C-236.7-670.02-238.03-668.69-239.68-668.68z"/>
				<path class="st2" d="M-239.68-666.71c-2.73,0-4.96-2.22-4.96-4.96s2.22-4.96,4.96-4.96h0c2.73,0,4.95,2.23,4.95,4.95
					C-234.72-668.93-236.94-666.71-239.68-666.71z M-239.68-675.62c-2.18,0-3.95,1.77-3.95,3.96s1.77,3.96,3.96,3.96
					s3.96-1.77,3.96-3.96C-235.72-673.84-237.5-675.62-239.68-675.62L-239.68-675.62z M-239.68-668.18c-0.93,0-1.8-0.36-2.46-1.02
					c-0.66-0.66-1.02-1.53-1.02-2.46c0-0.93,0.36-1.8,1.01-2.46c0.66-0.66,1.53-1.02,2.46-1.02c0,0,0,0,0.01,0
					c0.93,0,1.8,0.36,2.46,1.01c0.66,0.66,1.02,1.53,1.02,2.46C-236.2-669.75-237.76-668.19-239.68-668.18L-239.68-668.18
					C-239.68-668.18-239.68-668.18-239.68-668.18z M-239.68-674.14C-239.68-674.14-239.68-674.14-239.68-674.14
					c-0.67,0-1.29,0.26-1.76,0.73s-0.72,1.09-0.72,1.75s0.26,1.28,0.73,1.75c0.47,0.47,1.09,0.72,1.75,0.72c0,0,0,0,0,0l0,0
					c1.36,0,2.48-1.12,2.48-2.48c0-0.67-0.26-1.29-0.73-1.76C-238.4-673.89-239.02-674.14-239.68-674.14z"/>
			</g>
		</g>
	</g>
</g>
</svg>
