<svg xmlns="http://www.w3.org/2000/svg" width="19.333" height="20" viewBox="0 0 19.333 20"><defs><style>.a{fill:#7b8a8e;}</style></defs><path class="a" d="M16.4,2a.251.251,0,0,0-.25.229l-.074.891A3.978,3.978,0,0,0,14.1,4.258l-.807-.381a.25.25,0,0,0-.324.1l-.6,1.045a.25.25,0,0,0,.074.33l.742.514A3.958,3.958,0,0,0,13,7a3.957,3.957,0,0,0,.184,1.135l-.74.514a.249.249,0,0,0-.074.33l.6,1.045a.249.249,0,0,0,.322.1l.807-.381a3.979,3.979,0,0,0,1.971,1.139l.074.891A.251.251,0,0,0,16.4,12H17.6a.251.251,0,0,0,.25-.229l.074-.891A3.979,3.979,0,0,0,19.9,9.742l.807.381a.25.25,0,0,0,.324-.1l.6-1.045a.25.25,0,0,0-.074-.33l-.742-.514A3.958,3.958,0,0,0,21,7a3.957,3.957,0,0,0-.184-1.135l.74-.514a.249.249,0,0,0,.074-.33l-.6-1.045a.249.249,0,0,0-.322-.1l-.807.381a3.978,3.978,0,0,0-1.971-1.139l-.074-.891A.251.251,0,0,0,17.6,2ZM6.4,4a.251.251,0,0,0-.25.229l-.074.891A3.979,3.979,0,0,0,4.1,6.258l-.807-.381a.25.25,0,0,0-.324.1l-.6,1.045a.25.25,0,0,0,.074.33l.742.514A3.956,3.956,0,0,0,3,9a3.958,3.958,0,0,0,.184,1.135l-.74.514a.249.249,0,0,0-.074.33l.6,1.045a.249.249,0,0,0,.322.1l.807-.381a3.979,3.979,0,0,0,1.973,1.139l.074.891A.249.249,0,0,0,6.4,14H7.6a.251.251,0,0,0,.25-.229l.074-.891A3.98,3.98,0,0,0,9.9,11.742l.807.381a.25.25,0,0,0,.324-.1l.6-1.045a.25.25,0,0,0-.074-.33l-.742-.514A3.958,3.958,0,0,0,11,9a3.957,3.957,0,0,0-.184-1.135l.74-.514a.249.249,0,0,0,.074-.33l-.6-1.045a.249.249,0,0,0-.322-.1L9.9,6.258A3.979,3.979,0,0,0,7.928,5.119l-.074-.891A.251.251,0,0,0,7.6,4ZM17,5.5A1.5,1.5,0,1,1,15.5,7,1.5,1.5,0,0,1,17,5.5ZM7,7.5A1.5,1.5,0,1,1,5.5,9,1.5,1.5,0,0,1,7,7.5ZM13.4,12a.251.251,0,0,0-.25.229l-.074.891A3.979,3.979,0,0,0,11.1,14.258l-.807-.381a.25.25,0,0,0-.324.1l-.6,1.045a.25.25,0,0,0,.074.33l.742.514a3.593,3.593,0,0,0,0,2.268l-.74.514a.249.249,0,0,0-.074.33l.6,1.045a.249.249,0,0,0,.322.1l.807-.381a3.979,3.979,0,0,0,1.971,1.139l.074.891A.251.251,0,0,0,13.4,22H14.6a.251.251,0,0,0,.25-.229l.074-.891A3.979,3.979,0,0,0,16.9,19.742l.807.381a.25.25,0,0,0,.324-.1l.6-1.045a.25.25,0,0,0-.074-.33l-.742-.514a3.593,3.593,0,0,0,0-2.268l.74-.514a.249.249,0,0,0,.074-.33l-.6-1.045a.249.249,0,0,0-.322-.1l-.807.381a3.979,3.979,0,0,0-1.971-1.139l-.074-.891A.251.251,0,0,0,14.6,12Zm.6,3.5A1.5,1.5,0,1,1,12.5,17,1.5,1.5,0,0,1,14,15.5Z" transform="translate(-2.334 -2)"/></svg>