<svg xmlns="http://www.w3.org/2000/svg" width="24" height="15.273" viewBox="0 0 24 15.273"><defs><style>.a{fill:#7b8a8e;}</style></defs><path class="a" d="M8.636,5a3.273,3.273,0,1,0,3.273,3.273A3.273,3.273,0,0,0,8.636,5Zm8.727,0a3.273,3.273,0,1,0,3.273,3.273A3.273,3.273,0,0,0,17.364,5ZM8.636,7.182A1.091,1.091,0,1,1,7.545,8.273,1.093,1.093,0,0,1,8.636,7.182Zm8.727,0a1.091,1.091,0,1,1-1.091,1.091A1.093,1.093,0,0,1,17.364,7.182ZM8.636,13.727C5.364,13.727,1,15.324,1,17.545v2.727H25V17.545c0-2.221-4.364-3.818-7.636-3.818A13.051,13.051,0,0,0,13,14.545,13.065,13.065,0,0,0,8.636,13.727Zm0,2.182c2.575,0,5.04,1.119,5.455,1.745v.437H3.182v-.437C3.6,17.028,6.062,15.909,8.636,15.909Zm8.727,0c2.575,0,5.04,1.119,5.455,1.745v.437H16.273v-.545a2.147,2.147,0,0,0-.667-1.457A9.76,9.76,0,0,1,17.364,15.909Z" transform="translate(-1 -5)"/></svg>