<svg id="information" xmlns="http://www.w3.org/2000/svg" width="29.096" height="29.096" viewBox="0 0 29.096 29.096">
  <g id="Group_5465" data-name="Group 5465">
    <g id="Group_5464" data-name="Group 5464">
      <circle id="Ellipse_58" data-name="Ellipse 58" cx="1.421" cy="1.421" r="1.421" transform="translate(13.127 20.089)" fill="rgba(123,138,142,0.72)"/>
      <path id="Path_1617" data-name="Path 1617" d="M14.548,0A14.548,14.548,0,1,0,29.1,14.548,14.54,14.54,0,0,0,14.548,0Zm0,26.823A12.275,12.275,0,1,1,26.823,14.548,12.268,12.268,0,0,1,14.548,26.823Z" fill="rgba(123,138,142,0.72)"/>
      <path id="Path_1618" data-name="Path 1618" d="M180.546,128.5A4.551,4.551,0,0,0,176,133.046a1.137,1.137,0,1,0,2.273,0,2.273,2.273,0,1,1,2.273,2.273,1.137,1.137,0,0,0-1.137,1.137V139.3a1.137,1.137,0,1,0,2.273,0v-1.849a4.547,4.547,0,0,0-1.137-8.949Z" transform="translate(-165.998 -121.198)" fill="rgba(123,138,142,0.72)"/>
    </g>
  </g>
</svg>
